<svg xmlns="http://www.w3.org/2000/svg" width="45.597" height="46.292" viewBox="0 0 54 55" shape-rendering="geometricPrecision" text-rendering="geometricPrecision" image-rendering="optimizeQuality" fill-rule="evenodd" clip-rule="evenodd"><defs><style>.fil10{fill:#000}.fil2{fill:#c3c8d1}.fil8{fill:#ffc850}</style></defs><g id="Layer_x0020_1"><g id="_621900136"><circle cx="27" cy="28" r="27" fill="#e7e8e8"/><circle cx="25" cy="25" r="25" fill="#fefefe"/></g><g id="_621900088"><path class="fil2" d="M52 44l-6-33v27l-9 8h13c1 0 2-1 2-2z"/><path d="M46 11v27l-9 8h3l7-7c1 0 1-1 1-1V22l-2-11z" fill="#b0b3b7"/><path d="M46 38V11c0-1-1-2-2-2H3c-1 0-1 1-1 2v36c0 1 0 2 1 2h32l11-11z" fill="#e4eaf8"/><path d="M4 47V11c0-1 0-2 1-2H3c-1 0-1 1-1 2v36c0 1 0 2 1 2h2c-1 0-1-1-1-2zm42-9H36s-1 0-1 1v10l11-11z" fill="#d8dce5"/><path class="fil2" d="M37 39c0-1 1-1 1-1h-2s-1 0-1 1v10l2-3v-7z"/><path d="M44 9H3c-1 0-1 1-1 2v7h44v-7c0-1-1-2-2-2z" fill="#ff5050"/><path d="M4 11c0-1 0-2 1-2H3c-1 0-1 1-1 2v7h2v-7z" fill="#ed3a3a"/><circle class="fil8" cx="20" cy="26" r="2"/><circle class="fil8" cx="28" cy="26" r="2"/><circle class="fil8" cx="36" cy="26" r="2"/><circle class="fil8" cx="20" cy="33" r="2"/><circle class="fil8" cx="36" cy="33" r="2"/><circle class="fil8" cx="28" cy="33" r="2"/><circle class="fil8" cx="28" cy="41" r="2"/><circle class="fil8" cx="20" cy="41" r="2"/><path d="M19 26c0-1 1-2 2-3h-1c-2 0-3 1-3 3 0 1 1 2 3 2h1c-1-1-2-1-2-2zm8 0c0-1 1-2 2-3h-1c-2 0-3 1-3 3 0 1 1 2 3 2h1c-1-1-2-1-2-2zm9 0c0-1 0-2 1-3h-1c-1 0-2 1-2 3 0 1 1 2 2 2h1c-1-1-1-1-1-2zm-17 7c0-1 1-2 2-2h-1c-2 0-3 1-3 2s1 3 3 3c0 0 0-1 1-1-1 0-2-1-2-2zm17 0c0-1 0-2 1-2h-1c-1 0-2 1-2 2s1 3 2 3l1-1c-1 0-1-1-1-2zm-9 0c0-1 1-2 2-2h-1c-2 0-3 1-3 2s1 3 3 3c0 0 0-1 1-1-1 0-2-1-2-2zm0 8c0-1 1-2 2-2-1 0-1-1-1-1-2 0-3 2-3 3s1 2 3 2h1c-1 0-2-1-2-2zm-8 0c0-1 1-2 2-2-1 0-1-1-1-1-2 0-3 2-3 3s1 2 3 2h1c-1 0-2-1-2-2z" fill="#f9b428"/><path class="fil10" d="M20 22c-2 0-3 2-3 4 0 1 1 3 3 3 1 0 3-2 3-3 0-2-2-4-3-4zm0 5c-1 0-2-1-2-1 0-1 1-2 2-2s1 1 1 2c0 0 0 1-1 1zm8 2c1 0 3-2 3-3 0-2-2-4-3-4-2 0-3 2-3 4 0 1 1 3 3 3zm0-5c1 0 1 1 1 2 0 0 0 1-1 1s-2-1-2-1c0-1 1-2 2-2zm8 5c2 0 3-2 3-3 0-2-1-4-3-4s-3 2-3 4c0 1 1 3 3 3zm0-5c1 0 1 1 1 2 0 0 0 1-1 1s-2-1-2-1c0-1 1-2 2-2zm-16 6c-2 0-3 1-3 3s1 3 3 3c1 0 3-1 3-3s-2-3-3-3zm0 5c-1 0-2-1-2-2s1-1 2-1 1 0 1 1 0 2-1 2zm16 1c2 0 3-1 3-3s-1-3-3-3-3 1-3 3 1 3 3 3zm0-4c1 0 1 0 1 1s0 2-1 2-2-1-2-2 1-1 2-1zm-8 4c1 0 3-1 3-3s-2-3-3-3c-2 0-3 1-3 3s1 3 3 3zm0-4c1 0 1 0 1 1s0 2-1 2-2-1-2-2 1-1 2-1zm0 12c1 0 3-2 3-3 0-2-2-3-3-3-2 0-3 1-3 3 0 1 1 3 3 3zm0-5c1 0 1 1 1 2s0 1-1 1-2 0-2-1 1-2 2-2zm-8-1c-2 0-3 1-3 3 0 1 1 3 3 3 1 0 3-2 3-3 0-2-2-3-3-3zm0 4c-1 0-2 0-2-1s1-2 2-2 1 1 1 2 0 1-1 1zM9 28h1l1-1 2 1h1v-1l-1-1 1-2v-1h-1l-2 1-1-1H9v1l1 2-1 1v1zm0 7c0 1 1 1 1 1v-1l1-1 2 1v1s1 0 1-1v-1l-1-1 1-1v-1h-1l-2 1-1-1H9v1l1 1-1 1v1zm5 4c-1-1-1-1-1 0l-2 1-1-1c0-1 0-1-1 0v1l1 1-1 1v1h1l1-1 2 1h1v-1l-1-1 1-1v-1z"/><path class="fil10" d="M53 44l-2-11s-1-1-1 0h-1l2 11c1 1 0 2-1 2H39l7-8h1V19l2 11s0 1 1 1v-1l-3-19c0-1-1-2-3-2h-6V6l-1-1-1 1v3h-5V6s0-1-1-1v4h-6V5c-1 0-1 1-1 1v3h-5V6l-1-1-1 1v3h-5V6s0-1-1-1v4H3c-1 0-2 1-2 2v36c0 1 1 2 2 2h19s1 0 1-1H3l-1-1V19h43v18h-9c-1 0-2 1-2 2v9h-9v1h11l2-2h12c2 0 3-1 3-3zM2 17v-6c0-1 1-1 1-1h7v4h1v-4h5v4h2v-4h5v4h1v-4h6v4h1v-4h5v4h2v-4h6c1 0 1 0 1 1v6H2zm34 22h8c-1 0-7 7-8 8v-8z"/></g></g></svg>