<svg xmlns="http://www.w3.org/2000/svg" width="46.35" height="48.351" viewBox="0 0 136 141" shape-rendering="geometricPrecision" text-rendering="geometricPrecision" image-rendering="optimizeQuality" fill-rule="evenodd" clip-rule="evenodd"><defs><style>.fil8{fill:#000}.fil9{fill:#4d4d4d}.fil13{fill:#f8cf26}</style></defs><g id="Layer_x0020_1"><g id="_738131200"><circle cx="68" cy="72" r="67" fill="#e7e8e8"/><circle cx="64" cy="66" r="63" fill="#fefefe"/><path d="M32 88c-7 2-21 8-28 10-2 1-2 2-2 4l14 36c0 1 2 2 3 1 3-1 26-9 29-10L32 88z" fill="#00c3ff"/><path d="M45 123c-3 1-28 10-31 11l2 4c0 1 2 2 3 1 3-1 26-9 29-10l-2-6h-1z" fill="#00aaf0"/><path d="M96 87s-1-7-8-7c-19 0-22 0-26 1l-16 7 12 31c13-5 8-4 31-4 2 0 8-1 13-6l29-31c1-1 5-7 0-12s-11 1-12 1L96 87z" fill="#f0a479"/><path fill="#e59770" d="M53 85l-7 3 12 31 7-2z"/><path d="M43 84l-11 4 15 41 11-4c1-1 2-2 1-3L46 85c-1-1-2-2-3-1z" fill="#e4eaf8"/><path d="M59 122l-1-4h-1l-12 5 2 6 11-4c1-1 2-2 1-3z" fill="#d8dce5"/><path class="fil8" d="M133 64c-5-4-11-2-15 1L97 83c-1-3-4-5-9-5-19 0-22-1-27 1l-13 6v-1c-1-2-4-3-6-2-5 1-29 11-39 14-2 1-4 4-3 7l14 35c1 3 4 4 6 3 3-1 34-13 39-14 2-1 3-4 2-6v-1c7-3 7-3 15-3 1 0 2-1 2-2s-1-2-2-2c-8 0-9 1-16 4L49 89l14-6c4-2 6-1 25-1 3 0 4 1 5 2s1 2 1 3c0 0-1 4-4 5-6 0-17 2-17 2-2 0-2 1-2 2s1 2 2 2c0 0 12-2 17-3 6 0 7-5 8-7l23-20c2-2 6-4 9-1 4 4 0 8-1 9 0 1-29 31-29 31-4 5-9 6-11 6h-4c-1 0-2 1-2 2s1 2 2 2h4c2 0 9-1 14-7l29-31c3-3 6-9 1-15zM19 137c-1 1-1 0-1 0L4 101s0-1 1-1c8-3 20-8 26-10l14 38c-7 2-24 8-26 9zm38-14l-8 3c-1-2-14-35-15-37l9-4c1 0 1 0 1 1 1 2 13 35 14 36 0 0 0 1-1 1z"/><path class="fil9" d="M119 43c2 5-1 12-7 13-6 2-12-1-14-7l21-6zm0 0z"/><path d="M48 44l-7 2 1 6 5-2 1-6zm0 0z" fill="#ff1d25"/><path d="M106 8h-1l-17 6h-1v2l6 9c0 1 1 1 2 1l13-4c0-1 1-1 1-2l-2-11-1-1zm-7 5l3 8-3 1-2-8 2-1zm-9 3l4-1 3 7-2 1-5-7zm16 3l-2 1-2-8 2-1 2 8zm0 0z" fill="#e6e6e6"/><path d="M55 29l14-5 2 5-14 5-2-5zm0 0z" fill="#754c24"/><path class="fil13" d="M54 64l-4 1-3-7c-3-11 2-22 13-25l10-3 8 26-24 8z"/><path class="fil9" d="M74 57c2 6-1 12-7 14-5 2-12-1-13-7l20-7zm0 0z"/><path d="M69 59c1 3 0 6-3 7s-6-1-7-4l10-3zm0 0zm45-15c1 3-1 6-4 7s-6 0-7-3l11-4zm0 0z" fill="#ccc"/><path d="M97 50l26-9c-3-9-13-14-23-11l-5 2 2 18zm0 0zm-20 1l13-5 2 6-14 4-1-5zm0 0z" fill="#fbb03b"/><path class="fil13" d="M79 12l9 15 2 19 2 6 5-2-3-25-10-14-5 1zm0 0z"/><path d="M76 4l9-3 3 8-9 3-3-8zm0 0zM58 39l10-3v3l-9 3-1-3zm0 0zm7 2l4-1 1 3-4 1-1-3zm0 0z" fill="#f29200"/><path class="fil9" d="M72 9l9-3 1 2-9 3-1-2zm0 0z"/><path class="fil8" d="M58 39l10-3v3l-9 3-1-3zm0 0zm7 2l4-1 1 3-4 1-1-3zm0 0z"/><path class="fil8" d="M127 53l-1-3-7 3c2-3 2-6 2-10h2c1-1 2-1 1-2-3-10-14-16-24-12l-4 1v-4l12-4c0-1 1-1 1-2l-2-11-1-1h-1l-17 6-2-3h2c1-1 1-1 1-2l-2-8c-1-1-1-1-2-1l-9 3c-1 0-1 1-1 2l1 2-4 2 1 2 4-1v3h1l8 14 2 18-10 4-6-19s1-1 0-1l-1-5c0-1-1-2-2-1l-14 4c-1 1-1 1-1 2l1 4c-4 3-6 6-8 10l-7 2c-1 0-1 1-1 2l2 5c0 1 1 1 2 1l2-1c0 2 0 4 1 6l2 8s1 1 2 1l3-1c1 3 4 5 7 6l-11 4v2l78-25zM74 67c2-2 3-6 2-9l21-7c2 3 4 5 7 7l-30 9zm38-12c-5 2-10 0-12-5l3-1c1 3 5 5 8 4s5-5 4-8l3-1c1 5-2 10-6 11zm-7-6l8-3c0 2-2 3-3 4-2 0-4 0-5-1zm16-9l-23 8c0-3-1-10-1-16l4-1c8-3 17 2 20 9zM99 22l-2-8 2-1 3 8-3 1zm7-3l-2 1-2-8 2-1 2 8zm-12-4l3 7-2 1-5-7 4-1zM78 7V5l6-2 2 5-6 2-1-1 3-1-1-2-3 1zm11 19l-8-13 2-1 10 13 2 24-3 1-1-4-2-19v-1zm0 22l1 3-11 3-1-3 11-3zM58 32l-1-2 12-4v2l-11 4zM45 49l-2 1-1-3 3-1v3zm3 8c0-2-1-5 0-7v-2c1-6 6-12 12-14l9-3 8 24-27 8-2-6zm20 4c0 1-1 3-3 3-1 1-3 0-4-1l7-2zm-13 4l3-1c2 3 5 4 8 3s5-4 5-7l2-1c1 5-1 9-6 11-5 1-10-1-12-5zm0 0z"/></g></g></svg>