<svg xmlns="http://www.w3.org/2000/svg" width="45.597" height="46.292" viewBox="0 0 292 297" shape-rendering="geometricPrecision" text-rendering="geometricPrecision" image-rendering="optimizeQuality" fill-rule="evenodd" clip-rule="evenodd"><defs><style>.fil6{fill:#000}.fil5{fill:#e7343f}.fil4{fill:#ff4a4a}.fil3{fill:#ffbb24}.fil2{fill:#ffdb56}</style></defs><g id="Layer_x0020_1"><g id="_747147760"><circle cx="146" cy="151" r="146" fill="#e7e8e8"/><circle cx="138" cy="138" r="138" fill="#fefefe"/></g><g id="_747131488"><ellipse class="fil2" cx="77" cy="262" rx="43" ry="17"/><path class="fil3" d="M116 255c-6 6-21 10-39 10-17 0-32-4-39-10-2 2-4 5-4 7 0 10 20 18 43 18 24 0 43-8 43-18 0-2-1-5-4-7z"/><path class="fil4" d="M77 98c-34 0-62 28-62 63 0 52 62 100 62 100s63-48 63-100c0-35-28-63-63-63zm0 88c-13 0-25-12-25-25 0-14 12-25 25-25 14 0 25 11 25 25 0 13-11 25-25 25z"/><path class="fil5" d="M77 98c-2 0-4 1-7 1 31 3 55 30 55 62 0 41-38 80-55 94 5 4 7 6 7 6s63-48 63-100c0-35-28-63-63-63z"/><ellipse class="fil2" cx="229" cy="143" rx="33" ry="13"/><path class="fil3" d="M257 136c-6 4-16 6-28 6-11 0-22-2-28-6-3 2-5 4-5 7 0 7 15 13 33 13 19 0 33-6 33-13 0-3-1-5-5-7z"/><path class="fil4" d="M229 17c-26 0-48 21-48 48 0 40 48 77 48 77s48-37 48-77c0-27-21-48-48-48zm0 67c-10 0-19-8-19-19s9-19 19-19c11 0 19 8 19 19s-8 19-19 19z"/><path class="fil5" d="M229 17c-2 0-4 0-7 1 23 3 41 23 41 47 0 30-27 59-41 71 5 4 7 6 7 6s48-37 48-77c0-27-21-48-48-48z"/><path class="fil6" d="M77 94c-36 0-66 30-66 67 0 22 11 47 32 72 3 4 6 8 9 11-13 4-22 10-22 18 0 14 25 22 47 22 23 0 47-8 47-22 0-8-8-14-22-18 6-6 12-13 17-20 1-2 1-5-1-6-1-1-4-1-5 1-7 9-14 17-21 24 0 0-1 0-1 1-6 6-11 10-14 12-2-2-7-6-13-12l-2-2c-18-18-43-49-43-81s26-59 58-59c33 0 59 27 59 59 0 14-5 29-15 45-1 2 0 4 2 5s4 1 5-1c10-17 16-34 16-49 0-37-30-67-67-67zm0 171h3c0-1 7-6 16-15 13 3 20 8 20 12 0 3-4 6-10 9-7 3-18 5-29 5-23 0-39-8-39-14 0-4 8-9 21-12 9 9 15 14 16 15h2z"/><path class="fil6" d="M54 150c-2-1-4 1-4 3-1 2-2 5-2 8 0 16 13 29 29 29s29-13 29-29-13-29-29-29c-6 0-12 2-17 6-2 1-2 3-1 5 2 2 4 2 6 1 3-3 8-4 12-4 12 0 21 9 21 21 0 11-9 21-21 21-11 0-21-10-21-21 0-2 1-4 1-6 1-2 0-4-3-5zm212-7c0-6-6-12-16-15 2-2 4-4 6-7 17-19 25-38 25-56 0-29-23-52-52-52-21 0-39 13-47 32-1 2 0 4 2 5s4 0 5-2c7-16 23-27 40-27 25 0 44 20 44 44 0 33-34 64-44 72-2-2-5-4-9-8 0-1-1-2-2-2-13-14-33-38-33-62 0-2-1-4-4-4-2 0-4 2-4 4 0 18 9 37 25 56 2 3 5 5 7 7-11 3-17 9-17 15 0 5 5 10 13 13 6 3 15 4 24 4 10 0 18-1 25-4 8-3 12-8 12-13zm-37 9c-18 0-29-6-29-9 0-2 5-6 15-8 7 6 12 10 12 11h5c0-1 5-5 12-11 4 1 8 2 11 4 2 1 3 3 3 4 0 3-10 9-29 9z"/><path class="fil6" d="M252 65c0-13-10-23-23-23-12 0-23 10-23 23s11 23 23 23c13 0 23-10 23-23zm-38 0c0-8 7-15 15-15 9 0 16 7 16 15s-7 15-16 15c-8 0-15-7-15-15zm-36 82c2 0 4-2 4-4s-2-4-4-4h-6c-2 1-4 3-3 5 0 2 2 3 4 3h5zm-13 111h-5c-3 0-4 2-4 4s1 4 4 4h5c2 0 4-2 4-4s-2-4-4-4zm18-60c2 0 4-1 4-4 0-2-2-4-4-4h-6c-2 0-4 2-4 4 0 3 2 4 4 4h6zm-30-41c1 0 1 1 2 1s3-1 3-2l3-3c2-2 2-4 1-6-2-2-4-2-6 0l-4 4c-1 2-1 5 1 6zm33 101h-6c-2 0-3 2-3 4s1 4 4 4h5c2 0 4-2 4-4s-2-4-4-4zm-42 0h-5c-3 0-4 2-4 4s1 4 4 4h5c2 0 4-2 4-4s-2-4-4-4zm18-64c2 0 3 0 4-2 1-1 0-4-1-5-2-1-3-2-4-3-2-1-4-1-6 0-1 2-1 4 1 6l4 4h2zm-7-21c0-2-1-3-1-4v-1c0-2-1-4-4-4-2 0-4 2-4 4v1c0 2 1 3 1 5s2 4 4 4l1-1c2 0 3-2 3-4zm49 25c2 0 4-1 4-4 0-2-2-4-4-4h-6c-2 0-4 2-4 4 0 3 2 4 4 4h6zm61 8c1 0 2-1 3-2 1-2 1-4-1-6-1-1-3-2-5-3-1-1-4 0-5 2s0 4 2 5l3 3c1 0 2 1 3 1zm-17 51c-1 1-3 1-4 1h-1c-2 0-4 1-4 4 0 2 2 4 4 4h1c2 0 4-1 5-1 2 0 4-2 4-4-1-2-3-4-5-4zm16-8c-1 2-2 2-3 3-2 2-2 4-1 6 1 1 2 2 3 2s2-1 2-1c2-1 4-2 5-4 2-1 2-4 0-5-1-2-4-2-6-1zm14-19c-2 0-4 1-5 3 0 2-1 3-1 5-1 2 0 4 2 5h2c1 0 3-1 3-2 1-2 2-4 2-6s-1-4-3-5zm-5-20c-2 1-3 3-2 5s1 3 2 5c0 1 2 3 3 3s1 0 1-1c3 0 4-2 3-4 0-2-1-4-2-6s-3-3-5-2zm-48-12c2 0 4-1 4-4 0-2-2-4-4-4h-6c-2 0-4 2-4 4 0 3 2 4 4 4h6zm-18 60h-6c-2 0-4 2-3 4 0 2 1 4 3 4h6c2 0 4-2 4-4s-2-4-4-4zm37-60h1c3 0 4-1 4-3 1-3-1-5-3-5h-6c-2 0-4 2-4 4 0 3 2 4 4 4h4zm-16 60h-6c-2 0-4 2-4 4s2 4 4 4h6c2 0 4-2 4-4 0-3-2-4-4-4z"/></g></g></svg>