<svg xmlns="http://www.w3.org/2000/svg" width="46.233" height="46.292" viewBox="0 0 71 71" shape-rendering="geometricPrecision" text-rendering="geometricPrecision" image-rendering="optimizeQuality" fill-rule="evenodd" clip-rule="evenodd"><defs><style>.fil3{fill:#611a21}.fil2{fill:#7cc259}</style></defs><g id="Layer_x0020_1"><g id="_738132568"><circle cx="36" cy="36" r="35" fill="#e7e8e8"/><circle cx="34" cy="33" r="33" fill="#fefefe"/><ellipse class="fil2" cx="42" cy="11" rx="8" ry="9"/><path class="fil3" d="M47 14l-2-1-2 2V8h-2v6l-2-2-1 2 3 2v9h2v-7z"/><ellipse class="fil2" cx="25" cy="16" rx="5" ry="6"/><path class="fil3" d="M28 18h-1l-2 1v-5h-1v4l-1-1-1 1 2 1v6h1v-5z"/><path d="M71 25v-3c-6 0-56 1-56 7 0 7 20 9 20 13 0 3-23 4-35 10 5 8 14 15 24 17 5-3 11-7 18-10 14-6 17-9 17-13 0-8-30-12-30-14 0-3 21-6 42-7z" fill="#414753"/><path d="M71 23h-5c-4 0-33 2-43 5-4 2-1 4 0 4 0 0 21 8 22 8 3 1 5 4 1 6-2 1-37 14-38 15h1c1 0 36-13 38-14 5-3 1-6-2-7-1 0-21-8-22-9-1 0-3-1 0-2 11-4 39-5 43-6h5z" fill="#fbd303"/></g></g></svg>